# xmcd
#
# Track frame offsets: 
#        150
#        83475
#        143612
#        153207
#        178262
#        199025
#        211352
#
# Disc length: 3215 seconds
#
# Revision: 6
# Processed by: cddbd v1.5.2PL0 Copyright (c) Steve Scherf et al.
# Submitted via: ExactAudioCopy v1.3
#
DISCID=540c8d07
DTITLE=Artisti Vari - GMC Vol. 2
DYEAR=1994
DGENRE=Classical
TTITLE0=Un americano a Parigi
TTITLE1=Rapsodia in blu
TTITLE2=Sinfonietta per Orchestra 1
TTITLE3=Sinfonietta per Orchestra 2
TTITLE4=Sinfonietta per Orchestra 3
TTITLE5=Sinfonietta per Orchestra 4
TTITLE6=Sinfonietta per Orchestra 5
EXTD=YEAR: 1994 ID3G: 32
EXTT0=George Gershwin
EXTT1=George Gershwin
EXTT2=Leos Janacek
EXTT3=Leos Janacek
EXTT4=Leos Janacek
EXTT5=Leos Janacek
EXTT6=Leos Janacek
PLAYORDER=
